HIERARCHY
ROOT Hips
{
  OFFSET 65.7812 93.4024 -30.2
  CHANNELS 6 Xposition Yposition Zposition Zrotation Xrotation Yrotation
  JOINT ToSpine
  {
    OFFSET -2.69724 7.43032 -0.144315
    CHANNELS 3 Zrotation Xrotation Yrotation
    JOINT Spine
    {
      OFFSET -0.0310711 10.7595 1.96963
      CHANNELS 3 Zrotation Xrotation Yrotation
      JOINT Spine1
      {
        OFFSET 13.1342 3.43533 0.764692
        CHANNELS 3 Zrotation Xrotation Yrotation
        JOINT Neck
        {
          OFFSET 29.8703 7.82586 -0.130764
          CHANNELS 3 Zrotation Xrotation Yrotation
          JOINT Head
          {
            OFFSET 9.52751 0.295786 -0.907742
            CHANNELS 3 Zrotation Xrotation Yrotation
            End Site
            {
              OFFSET 16.4037 0.713936 2.7358
            }
          }
        }
        JOINT LeftShoulder
        {
          OFFSET 27.5574 4.95586 2.47156
          CHANNELS 3 Zrotation Xrotation Yrotation
          JOINT LeftArm
          {
            OFFSET 1.20734 -0.998971 20.1238
            CHANNELS 3 Zrotation Xrotation Yrotation
            JOINT LeftForeArm
            {
              OFFSET 26.8049 -0.0536703 -0.155908
              CHANNELS 3 Zrotation Xrotation Yrotation
              JOINT LeftHand
              {
                OFFSET 26.6817 0 0.320147
                CHANNELS 3 Zrotation Xrotation Yrotation
                End Site
                {
                  OFFSET 18.6119 0 0.382219
                }
              }
            }
          }
        }
        JOINT RightShoulder
        {
          OFFSET 27.5927 4.71444 -2.65209
          CHANNELS 3 Zrotation Xrotation Yrotation
          JOINT RightArm
          {
            OFFSET 2.83739 -1.17114 -18.7564
            CHANNELS 3 Zrotation Xrotation Yrotation
            JOINT RightForeArm
            {
              OFFSET 28.839 -0.0548439 1.22491
              CHANNELS 3 Zrotation Xrotation Yrotation
              JOINT RightHand
              {
                OFFSET 26.5114 0 -0.101894
                CHANNELS 3 Zrotation Xrotation Yrotation
                End Site
                {
                  OFFSET 18.2168 0 0
                }
              }
            }
          }
        }
      }
    }
  }
  JOINT LeftUpLeg
  {
    OFFSET -4.76168 -1.9167 -10.2353
    CHANNELS 3 Zrotation Xrotation Yrotation
    JOINT LeftLeg
    {
      OFFSET 2.55951 -42.0585 -8.02213
      CHANNELS 3 Zrotation Xrotation Yrotation
      JOINT LeftFoot
      {
        OFFSET 3.16357 -42.5282 -3.95426
        CHANNELS 3 Zrotation Xrotation Yrotation
        JOINT LeftToeBase
        {
          OFFSET 0.346054 -6.02161 12.8035
          CHANNELS 3 Zrotation Xrotation Yrotation
          End Site
          {
            OFFSET 0.134235 -1.35082 5.13018
          }
        }
      }
    }
  }
  JOINT RightUpLeg
  {
    OFFSET -4.94151 -1.41743 10.6446
    CHANNELS 3 Zrotation Xrotation Yrotation
    JOINT RightLeg
    {
      OFFSET -2.56294 -42.0364 -7.94377
      CHANNELS 3 Zrotation Xrotation Yrotation
      JOINT RightFoot
      {
        OFFSET -3.0952 -42.555 -4.02241
        CHANNELS 3 Zrotation Xrotation Yrotation
        JOINT RightToeBase
        {
          OFFSET -0.0828122 -6.13587 12.8035
          CHANNELS 3 Zrotation Xrotation Yrotation
          End Site
          {
            OFFSET -0.131328 -1.35082 5.13018
          }
        }
      }
    }
  }
}
MOTION
Frames:	15
Frame Time:	0.0333333
253.846 99.2007 167.608 46.7951 -53.6777 -32.8799 -70.1915 0 88.8779 110.488 75.8689 -20.0419 -2.6135 27.0699 0.68661 -158.417 22.8926 175.944 -159.798 62.353 -173.592 0.826335 -11.3002 -30.1081 -72.5 60.7778 -58.2646 5.16011 2.86175 -60.9007 0.420957 0.000575289 0.358661 -2.04175 8.19926 39.1322 -61.2115 -35.1596 88.1494 26.6918 -2.14944 85.5361 0.58676 0.00033114 0.0646654 -26.102 1.11943 89.9559 -2.52347 35.8299 -9.18657 -5.02665 5.80422 1.26175 2.42374 -5.5868 1.07863 -61.1701 2.245 96.5796 4.6813 57.7434 2.74944 -1.81939 2.69597 0.217143 2.59554 -20.1475 5.49954 
247.38 100.607 161.011 47.4341 -51.0867 -31.6633 -70.1915 0 88.8779 116.217 75.3317 -25.5707 -3.72539 27.0864 0.468479 -161.505 24.3869 175.892 -160.587 63.8613 -175.687 0.959877 -10.6485 -28.6723 -76.5052 63.1575 -52.814 5.15879 2.6614 -62.5783 0.420957 0.000575289 0.358661 -1.96187 8.05037 38.6232 -59.5271 -34.0258 87.8225 27.6482 -0.627057 88.591 0.58676 0.00033114 0.0646654 -24.7964 1.82979 91.9203 -1.22517 27.0649 -22.3932 -13.1132 11.9237 3.89585 5.51214 -13.2069 11.6394 -63.7252 6.93501 101.192 3.16495 46.3657 6.60118 -3.11383 1.92369 0.453885 2.94818 -24.0529 -1.32258 
241.199 100.912 154.416 46.5429 -46.5586 -31.2549 -70.1915 0 88.8779 103.81 75.6392 -12.076 -1.76032 26.4839 -0.88901 -162.123 25.4848 173.802 -158.234 64.7824 -176.717 0.760238 -11.7621 -28.4345 -80.7165 63.0034 -47.3268 5.72512 2.68632 -64.6293 0.420957 0.000575289 0.358661 -1.90159 7.79195 38.7043 -59.7406 -34.1142 86.0437 30.0704 -0.746356 88.4989 0.58676 0.00033114 0.0646654 -18.1993 0.624133 88.2469 -3.50288 36.4865 -19.9343 -11.6627 3.38139 2.0351 8.44401 -17.8961 12.4713 -60.2094 8.42707 98.2553 2.44512 38.1245 7.49679 -2.42237 -1.17998 0.526337 2.80197 -25.3991 -5.96628 
234.751 100.402 147.552 49.0986 -44.1037 -29.674 -70.1915 0 88.8779 107.544 74.5869 -18.4312 -3.14149 25.1175 1.48107 -164.407 25.9048 173.557 -156.373 64.9713 -179.417 0.637953 -12.3274 -29.4556 -84.5148 61.1626 -44.6682 6.78657 3.09608 -65.1963 0.420957 0.000575289 0.358661 -1.91247 7.64138 39.3558 -60.4432 -33.9924 83.497 29.5934 -2.57741 85.2747 0.58676 0.00033114 0.0646654 -15.4527 -0.602653 88.4958 -4.99481 54.2354 -9.87271 -7.82231 -4.95665 0.195948 7.21603 -16.214 18.1594 -55.3917 7.09562 91.9766 2.04764 38.5377 3.40146 -4.02109 -7.71434 0.997371 2.62662 -23.2265 -6.13309 
228.178 99.6956 140.158 52.0516 -45.288 -30.1586 -70.1915 0 88.8779 120.264 72.75 -34.0631 -5.54664 25.2974 1.97968 -162.837 26.2098 173.541 -158.639 65.5964 -175.366 0.707356 -11.9522 -29.5745 -85.396 59.5267 -45.9142 6.96272 3.29953 -64.3818 0.420957 0.000575289 0.358661 -2.01502 7.52628 41.1113 -61.1058 -33.5928 80.7832 25.5211 -5.22998 79.0246 0.58676 0.00033114 0.0646654 -18.4906 0.259275 91.7399 -9.90195 70.4477 1.11946 -4.6364 -3.57348 0.0850164 8.46661 -17.9666 19.0754 -49.9305 5.23468 90.4225 1.11468 42.4263 -5.68511 -5.59942 -13.1855 1.25881 1.88637 -16.1549 4.79971 
221.959 98.5203 133.434 54.968 -46.0323 -29.5303 -70.1915 0 88.8779 124.4 70.8681 -40.192 -6.77257 24.5105 2.61465 -161.405 26.0474 173.644 -159.01 65.4841 -174.565 0.525841 -12.7915 -30.4402 -81.1332 57.4051 -52.0242 4.56505 2.38696 -62.2972 0.420957 0.000575289 0.358661 -2.05839 7.27417 42.6546 -60.9844 -33.895 79.5913 22.3661 -8.75494 69.583 0.58676 0.00033114 0.0646654 -25.3 1.83034 94.0752 -27.7594 81.7986 21.2232 -2.82865 -4.12898 -0.150365 6.40563 -14.853 14.6536 -43.3071 5.52487 92.54 2.40934 48.758 -1.30758 -5.14639 -15.2475 1.3229 2.31488 -12.4727 -14.9718 
216.406 96.7229 127.951 54.3058 -44.1948 -29.5957 -70.1915 0 88.8779 111.432 71.513 -26.4725 -3.68852 23.1539 0.81307 -161.942 26.3124 173.432 -158.884 65.7118 -175.3 0.365396 -13.4246 -31.566 -78.8355 53.2713 -57.5883 4.85239 2.72188 -60.6511 0.420957 0.000575289 0.358661 -2.13785 6.82389 45.6662 -57.4854 -32.4642 79.2171 17.9665 -10.1713 61.3662 0.58676 0.00033114 0.0646654 -31.7057 3.03591 93.3737 -85.3508 85.6203 77.3486 -3.25275 -2.02253 0.114646 3.72937 -10.0938 10.3637 -34.358 7.33059 93.7601 2.40004 53.5597 -4.75296 -7.92498 -12.8589 1.28898 2.27085 -15.5523 -14.2545 
211.281 95.979 121.828 57.7438 -42.9222 -25.8803 -70.1915 0 88.8779 108.924 69.577 -23.3121 -1.92645 20.916 0.466292 -162.234 27.0574 174.204 -161.446 66.6774 -172.709 0.174862 -14.4098 -31.1241 -75.8406 51.3074 -63.0026 3.30623 1.82586 -61.2413 0.420957 0.000575289 0.358661 -2.21335 6.80451 46.8154 -57.8483 -34.252 75.6906 15.3742 -10.1034 57.4373 0.58676 0.00033114 0.0646654 -43.1172 2.65356 91.0638 -80.0393 85.3114 68.065 -3.09516 1.92353 0.510717 1.45509 -5.72876 8.40542 -31.1353 5.84722 91.0316 2.34619 52.7768 -4.5899 -3.91084 -15.5065 1.34004 2.1504 -4.16544 -13.1245 
206.008 96.244 115.657 58.0811 -41.9025 -25.8858 -70.1915 0 88.8779 102.035 68.833 -17.0076 -0.632896 19.5263 -0.162194 -161.058 27.391 173.312 -162.174 67.0295 -172.153 0.322145 -14.0727 -28.973 -73.8463 50.0327 -66.6038 5.6386 2.50182 -65.8793 0.420957 0.000575289 0.358661 -2.18822 6.67453 47.0782 -58.1514 -37.5307 70.9545 15.9542 -9.35942 60.3253 0.58676 0.00033114 0.0646654 -53.5084 1.37746 90.1491 -24.8278 79.7668 10.2497 -3.23507 3.16192 0.661777 1.22995 -4.06923 4.07864 -27.4488 4.20385 90.462 2.0857 48.6792 -3.06705 -4.17743 -11.0934 1.14948 1.82545 -0.547342 -11.2325 
200.29 97.3632 108.764 56.3746 -41.2969 -27.3103 -70.1915 0 88.8779 96.7093 68.0948 -12.424 -0.319002 18.3877 0.138554 -161.667 27.3452 172.986 -161.64 66.9255 -173.251 0.441756 -13.5013 -28.552 -75.9496 47.2493 -66.5346 9.45403 2.77025 -73.3092 0.420957 0.000575289 0.358661 -2.12843 6.57622 46.6941 -58.7199 -40.0527 67.7817 15.9435 -8.08192 63.7429 0.58676 0.00033114 0.0646654 -60.5627 0.116224 89.4342 -9.02724 67.2988 -4.41417 -5.25042 1.49755 0.773758 -1.3373 1.99406 1.92014 -24.8921 4.12584 92.2796 1.16138 38.7953 -3.37169 -1.18735 -0.119068 0.307385 0.999109 -0.00345212 -6.20353 
194.337 99.1314 100.845 54.6284 -40.7115 -28.467 -70.1915 0 88.8779 98.5953 67.5633 -14.8819 -1.63935 17.9334 1.06374 -162.22 27.8017 171.163 -158.025 67.0535 -177.199 0.416247 -13.6623 -28.4297 -76.2987 45.1254 -67.4929 9.86825 1.52409 -80.7142 0.420957 0.000575289 0.358661 -1.96893 6.08499 46.7646 -63.5152 -41.386 64.0113 15.3727 -7.55599 64.3874 0.58676 0.00033114 0.0646654 -63.7221 -2.5207 86.8379 -4.63155 54.0618 -7.33706 -4.6959 5.01304 1.10918 -2.2771 4.00656 1.87113 -25.4456 0.833691 85.6917 0.36338 21.9179 8.78526 4.61855 15.1796 -2.21374 1.08494 3.68627 -7.91457 
187.984 99.8575 93.2411 50.9754 -39.069 -30.7429 -70.1915 0 88.8779 94.7891 67.8989 -12.5154 -2.51716 17.3199 3.33368 -165.28 28.4002 170.501 -155.017 67.1912 178.02 0.503856 -13.3197 -27.5486 -75.6201 44.6969 -68.9578 8.83144 0.109679 -88.6093 0.420957 0.000575289 0.358661 -1.96531 6.15384 46.3545 -67.1432 -42.0158 60.4995 14.6387 -5.67742 69.1867 0.58676 0.00033114 0.0646654 -61.7024 -3.57377 85.2982 -3.22746 44.295 -8.43132 -2.40424 2.58302 0.474724 -1.17125 2.09655 0.939883 -22.3132 -0.697979 85.4171 2.21146 17.5304 21.4766 7.4514 16.694 -3.16828 3.45779 -5.51154 -24.456 
181.927 99.6386 85.9338 49.2222 -37.9924 -32.9171 -70.1915 0 88.8779 93.2576 68.4898 -12.9399 -3.30551 17.5219 4.26398 -168.217 29.2189 170.558 -155.157 67.9635 177.381 0.630677 -12.6885 -26.7839 -75.8036 44.9644 -70.3669 10.057 -0.964 -94.6638 0.420957 0.000575289 0.358661 -1.99177 6.28047 46.1214 -70.9336 -41.3584 59.5898 13.7338 -4.3415 72.7067 0.58676 0.00033114 0.0646654 -58.6892 -5.28203 86.123 -2.85079 37.871 -10.6079 -0.828869 2.47043 0.226691 0.335153 -2.5723 4.86021 -17.9789 1.47125 96.4139 0.665555 31.3182 12.0968 1.00618 7.10769 -0.590768 2.69577 -12.0881 -21.6473 
175.341 98.4619 78.104 49.0988 -38.8176 -32.0764 -70.1915 0 88.8779 102.277 68.7438 -21.5543 -5.45545 18.197 4.93932 -167.827 30.2756 168.836 -152.603 68.7072 175.625 0.522434 -13.4354 -26.2515 -77.4495 46.4015 -69.268 9.88691 -1.32472 -96.7751 0.420957 0.000575289 0.358661 -1.9662 6.07244 46.7875 -72.5604 -38.8345 62.0053 12.7628 -3.66467 74.1578 0.58676 0.00033114 0.0646654 -54.2697 -3.85428 89.9863 -2.90831 37.3223 -11.6522 0.281635 3.98049 0.173411 7.09056 -15.7101 10.9746 -16.7774 3.14159 99.3115 2.70366 48.7431 1.26938 -2.4751 -0.402537 0.489372 2.3001 -17.5425 -18.8028 
168.926 96.5301 70.3622 50.1303 -39.234 -30.2029 -70.1915 0 88.8779 110.528 68.4199 -28.7573 -7.15104 18.8806 4.99404 -167.443 31.2068 167.931 -150.588 69.3917 173.519 0.569539 -13.1059 -26.4786 -76.4365 46.9749 -70.0872 7.84912 -0.699526 -94.2927 0.420957 0.000575289 0.358661 -1.96394 5.96324 47.3292 -72.2039 -35.5466 66.4163 14.0654 -3.67875 75.53 0.58676 0.00033114 0.0646654 -48.575 -1.49718 94.3736 -3.12791 41.4009 -10.0383 -0.314986 -7.73007 -0.680065 6.87783 -15.1537 7.46665 -17.5041 3.21788 97.447 5.09724 66.2673 -7.10118 -6.91355 -4.00007 1.11321 2.24941 -18.6817 -19.0626 
